<?xml version="1.0" encoding="iso-8859-1"?>
<!-- Generator: Adobe Illustrator 21.1.0, SVG Export Plug-In . SVG Version: 6.00 Build 0)  -->
<svg version="1.1" id="Layer_1" xmlns="http://www.w3.org/2000/svg" xmlns:xlink="http://www.w3.org/1999/xlink" x="0px" y="0px"
	 viewBox="-49 141.137 512.001 724.593" style="enable-background:new -49 141.137 512.001 724.593;" xml:space="preserve">
<g>
	<path style="fill:#937E6D;" d="M240.033,169.42c41.29,1.309,70.194-28.283,107.355-28.283s115.613,141.763,115.613,156.904
		c0,53.678-56.448,38.573-82.581,90.839c-16.516,33.032-49.548,49.548-57.807,49.548L215.259,298.041L240.033,169.42"/>
	<path style="fill:#937E6D;" d="M173.968,169.42c-41.29,1.309-70.194-28.283-107.355-28.283S-49,282.901-49,298.041
		c0,53.678,56.448,38.573,82.581,90.839c16.516,33.032,49.548,49.548,57.807,49.548l107.355-140.387L173.968,169.42"/>
</g>
<g>
	<path style="fill:#877364;" d="M99.645,265.009c0,0-8.258,99.097,57.807,132.129V265.009H99.645z"/>
	<path style="fill:#877364;" d="M314.356,265.009c0,0,8.258,99.097-57.807,132.129V265.009H314.356z"/>
</g>
<g>
	<path style="fill:#FFEBD2;" d="M133.053,501.767c1.649-13.609,8.238-39.037,32.658-71.597l-24.774-24.774
		c-5.938,13.062-21.446,69.831-13.796,96.957C128.031,505.513,132.657,505.026,133.053,501.767z"/>
	<path style="fill:#FFEBD2;" d="M273.708,405.396l-24.774,24.774c24.407,32.542,31.003,57.96,32.656,71.575
		c0.396,3.264,5.03,3.752,5.921,0.587C295.146,475.197,279.644,418.454,273.708,405.396z"/>
</g>
<path style="fill:#9F8976;" d="M320.725,255.486c0-16.516,8.258-90.839-115.613-90.839S89.499,238.97,89.499,255.486
	s41.29,16.516,49.548,37.161c0,0,0,48.415,0,57.623c0,9.208-8.258,53.861-8.258,53.861l33.7,33.7
	c4.537,63.173,8.135,168.626,24.106,197.525c10.839,19.613,38.834,26.442,74.323-8.258c14.502-14.179,23.076-30.286,28.468-40.865
	c2.465-4.837,0.495-10.718-4.36-13.146l0,0c-4.32-2.16-9.542-0.875-12.33,3.069c-9.716,13.745-31.411,42.652-36.551,34.427
	c-4.456-7.13,4.932-137.287,7.582-172.744l33.708-33.708c0,0-8.258-44.654-8.258-53.861c0-9.208,0-57.623,0-57.623
	C279.435,272.003,320.725,272.003,320.725,255.486z"/>
<g>
	<circle style="fill:#464655;" cx="128.549" cy="293.909" r="12.387"/>
	<circle style="fill:#464655;" cx="285.452" cy="293.909" r="12.387"/>
</g>
<circle style="fill:#39332D;" cx="131.335" cy="293.909" r="26.117"/>
<path style="fill:#39332D;" d="M126.846,280.449l44.988-113.711c0,0,10.821-1.174,14.966-1.503
	c-0.141,0.373-46.502,120.344-46.502,120.344L126.846,280.449z"/>
<polygon style="fill:#39332D;" points="122.652,312.639 121.901,398.521 134.718,381.849 136.006,312.639 "/>
<path style="fill:#39332D;" d="M191.78,163.22"/>
<g>
	<rect x="-49" y="724.646" style="fill:none;" width="512.001" height="141.085"/>
	<path style="fill:#FFEBD2;" d="M78.617,809.973c1.433,0,2.75-0.077,3.951-0.232c1.2-0.154,2.42-0.349,3.661-0.581v5.229
		c-0.504,0.232-1.162,0.465-1.976,0.697s-1.695,0.436-2.644,0.61c-0.95,0.174-1.947,0.31-2.993,0.406s-2.034,0.146-2.963,0.146
		c-3.021,0-5.617-0.319-7.786-0.959c-2.17-0.639-3.951-1.675-5.346-3.108c-1.395-1.433-2.431-3.331-3.108-5.694
		c-0.678-2.362-1.017-5.249-1.017-8.658v-39.744h-9.064v-4.764c1.433,0,3.012-0.291,4.736-0.872
		c1.723-0.581,3.244-1.549,4.561-2.905c1.355-1.472,2.45-3.225,3.283-5.259c0.833-2.033,1.559-4.58,2.179-7.641h5.462v14.643h15.572
		v6.798H69.552v40.094c0,4.066,0.823,7.05,2.469,8.947C73.668,809.023,75.866,809.973,78.617,809.973z"/>
	<path style="fill:#FFEBD2;" d="M127.25,815.086H92.911v-4.997h0.349c1.355,0,2.624-0.097,3.806-0.29
		c1.182-0.194,2.208-0.591,3.08-1.191c0.871-0.601,1.568-1.462,2.092-2.586c0.522-1.123,0.784-2.615,0.784-4.475v-37.129
		c0-1.743-0.262-3.146-0.784-4.213c-0.523-1.064-1.23-1.889-2.121-2.469c-0.892-0.582-1.927-0.969-3.108-1.162
		c-1.182-0.194-2.432-0.291-3.748-0.291h-0.349v-4.997h18.302l2.268,11.796h0.58c0.775-1.782,1.568-3.458,2.383-5.026
		c0.812-1.569,1.811-2.943,2.992-4.126c1.182-1.181,2.645-2.11,4.387-2.789c1.744-0.677,3.932-1.017,6.566-1.017
		c4.338,0,7.562,0.755,9.674,2.267c2.111,1.51,3.168,3.641,3.168,6.391c0,1.24-0.203,2.383-0.611,3.429
		c-0.406,1.046-1.055,1.946-1.945,2.702c-0.893,0.755-2.035,1.336-3.43,1.743c-1.395,0.406-3.098,0.61-5.113,0.61
		c0-3.293-0.465-5.666-1.395-7.118c-0.93-1.453-2.557-2.179-4.881-2.179c-1.471,0-2.789,0.416-3.951,1.249s-2.178,1.938-3.049,3.312
		c-0.873,1.376-1.609,2.954-2.209,4.736c-0.602,1.781-1.084,3.612-1.453,5.49c-0.367,1.88-0.629,3.748-0.783,5.607
		c-0.156,1.859-0.232,3.545-0.232,5.055v18.711c0,1.742,0.262,3.147,0.783,4.212c0.523,1.066,1.23,1.869,2.121,2.411
		c0.891,0.543,1.928,0.901,3.109,1.075c1.182,0.175,2.43,0.262,3.748,0.262h3.311V815.086z"/>
	<path style="fill:#FFEBD2;" d="M207.727,802.129c0,1.742,0.262,3.147,0.785,4.212c0.522,1.066,1.229,1.869,2.121,2.411
		c0.891,0.543,1.926,0.901,3.108,1.075c1.181,0.175,2.431,0.262,3.747,0.262h0.35v4.997h-18.885l-1.568-9.646h-0.582
		c-1.2,2.247-2.527,4.067-3.979,5.462c-1.453,1.395-2.993,2.489-4.62,3.283s-3.331,1.336-5.113,1.627
		c-1.781,0.29-3.641,0.436-5.578,0.436c-3.137,0-5.926-0.445-8.367-1.336c-2.439-0.892-4.493-2.286-6.158-4.184
		c-1.666-1.898-2.935-4.319-3.807-7.264c-0.871-2.943-1.307-6.449-1.307-10.518v-28.529c0-1.743-0.262-3.146-0.785-4.213
		c-0.522-1.064-1.229-1.889-2.121-2.469c-0.891-0.582-1.927-0.969-3.108-1.162c-1.182-0.194-2.431-0.291-3.747-0.291h-0.35v-4.997
		h21.325v41.081c0,2.595,0.203,4.9,0.61,6.914c0.406,2.015,1.084,3.719,2.033,5.113s2.228,2.45,3.835,3.167s3.612,1.075,6.015,1.075
		c2.634,0,4.89-0.465,6.769-1.395s3.429-2.237,4.648-3.923c1.221-1.685,2.121-3.709,2.702-6.071
		c0.581-2.363,0.871-4.978,0.871-7.845v-24.521c0-1.859-0.261-3.36-0.784-4.503c-0.522-1.143-1.22-2.014-2.092-2.615
		c-0.871-0.6-1.898-0.997-3.079-1.19c-1.183-0.194-2.45-0.291-3.807-0.291h-0.348v-4.997h21.266V802.129z"/>
	<path style="fill:#FFEBD2;" d="M255.896,810.089v4.997h-32.016v-4.997h0.987c1.355,0,2.624-0.097,3.806-0.29
		c1.182-0.194,2.208-0.591,3.08-1.191c0.871-0.601,1.568-1.462,2.092-2.586c0.522-1.123,0.784-2.615,0.784-4.475v-37.129
		c0-1.743-0.262-3.146-0.784-4.213c-0.523-1.064-1.23-1.889-2.121-2.469c-0.892-0.582-1.928-0.969-3.108-1.162
		c-1.183-0.194-2.432-0.291-3.748-0.291h-0.349v-4.997h19.232l1.569,9.646h0.581c1.239-2.208,2.547-4.019,3.922-5.433
		s2.827-2.518,4.358-3.312c1.529-0.793,3.156-1.336,4.881-1.627c1.723-0.29,3.534-0.436,5.433-0.436
		c3.138,0,5.936,0.456,8.396,1.365c2.459,0.911,4.551,2.306,6.275,4.184c1.723,1.88,3.04,4.291,3.951,7.234
		c0.909,2.944,1.365,6.45,1.365,10.517v28.123c0,1.859,0.223,3.352,0.668,4.475c0.445,1.124,1.075,1.985,1.889,2.586
		s1.781,0.997,2.905,1.191c1.123,0.193,2.344,0.29,3.661,0.29h0.406v4.997H273.27v-41.08c0-2.596-0.232-4.9-0.697-6.915
		c-0.465-2.014-1.211-3.719-2.236-5.113c-1.027-1.395-2.373-2.449-4.039-3.167c-1.665-0.716-3.699-1.074-6.101-1.074
		c-2.712,0-4.988,0.522-6.827,1.568c-1.841,1.046-3.322,2.46-4.445,4.242c-1.124,1.781-1.928,3.834-2.411,6.158
		c-0.485,2.324-0.727,4.766-0.727,7.322v25.102c0,1.742,0.262,3.147,0.784,4.212c0.523,1.066,1.229,1.869,2.121,2.411
		c0.891,0.543,1.927,0.901,3.108,1.075c1.182,0.175,2.431,0.262,3.748,0.262H255.896z"/>
	<path style="fill:#FFEBD2;" d="M337.651,776.795l15.862,23.532c2.054,3.177,4.097,5.598,6.131,7.263
		c2.033,1.666,4.387,2.499,7.06,2.499h0.349v4.997h-1.686c-3.447,0-6.285-0.106-8.512-0.319c-2.229-0.213-4.154-0.717-5.781-1.511
		s-3.119-1.956-4.475-3.486c-1.356-1.53-2.867-3.612-4.532-6.246l-11.911-18.652l-8.774,6.508v10.75
		c0,1.742,0.262,3.147,0.784,4.212c0.523,1.066,1.229,1.869,2.121,2.411c0.891,0.543,1.927,0.901,3.108,1.075
		c1.182,0.175,2.431,0.262,3.748,0.262h0.349v4.997h-32.016v-4.997h0.93c1.355,0,2.623-0.097,3.806-0.29
		c1.181-0.194,2.208-0.591,3.079-1.191c0.872-0.601,1.569-1.462,2.092-2.586c0.523-1.123,0.785-2.615,0.785-4.475v-63.799
		c0-1.744-0.262-3.147-0.785-4.213c-0.522-1.065-1.229-1.889-2.121-2.47c-0.891-0.581-1.927-0.959-3.108-1.133
		c-1.182-0.175-2.431-0.262-3.747-0.262h-0.93v-4.997h21.905v45.903c0,1.085-0.02,2.47-0.058,4.154
		c-0.039,1.686-0.098,3.341-0.175,4.968c-0.078,1.859-0.155,3.816-0.232,5.869l14.875-16.27c1.278-1.433,2.333-2.692,3.167-3.777
		c0.832-1.084,1.501-2.033,2.004-2.847c0.504-0.813,0.853-1.54,1.047-2.179c0.193-0.64,0.29-1.25,0.29-1.83
		c0-1.008-0.475-1.656-1.424-1.947c-0.949-0.29-2.411-0.436-4.387-0.436v-4.997h26.264v4.997c-2.751,0-5.453,0.969-8.105,2.905
		c-2.654,1.938-5.53,4.668-8.629,8.192L337.651,776.795z"/>
</g>
</svg>
